<svg width="220" height="72" viewBox="0 0 220 72" fill="none" xmlns="http://www.w3.org/2000/svg">
  <rect width="220" height="72" rx="18" fill="#FFF9F3"/>
  <rect x="1" y="1" width="218" height="70" rx="17" stroke="#D8BCA4" stroke-width="2"/>
  <circle cx="38" cy="36" r="18" fill="#7A3F17"/>
  <path d="M31 43V29.4H34.168L42.472 38.776V29.4H45.704V43H42.776L34.232 33.336V43H31Z" fill="#FFF8F3"/>
  <path d="M57.28 46V26H61V46H57.28ZM67.1444 46.24C65.4111 46.24 63.8911 45.9067 62.5844 45.24C61.2911 44.56 60.2777 43.6133 59.5444 42.4C58.8111 41.1733 58.4444 39.7333 58.4444 38.08C58.4444 36.4267 58.8111 34.9933 59.5444 33.78C60.2911 32.5533 61.3177 31.6067 62.6244 30.94C63.9311 30.26 65.4377 29.92 67.1444 29.92C68.5177 29.92 69.7644 30.16 70.8844 30.64C72.0044 31.12 72.9444 31.8267 73.7044 32.76L71.3044 35.04C70.2111 33.7867 68.8644 33.16 67.2644 33.16C66.2777 33.16 65.3977 33.38 64.6244 33.82C63.8511 34.2467 63.2444 34.8533 62.8044 35.64C62.3777 36.4267 62.1644 37.3467 62.1644 38.4C62.1644 39.4533 62.3777 40.3733 62.8044 41.16C63.2444 41.9467 63.8511 42.56 64.6244 43C65.3977 43.4267 66.2777 43.64 67.2644 43.64C68.8644 43.64 70.2111 43.0067 71.3044 41.74L73.7044 44.02C72.9444 44.9533 72.0044 45.6667 70.8844 46.16C69.7511 46.6533 68.5044 46.9067 67.1444 46.92V46.24ZM75.2269 46V29.4H78.9469V46H75.2269ZM82.7256 46V29.4H86.4456V46H82.7256ZM89.9831 46V29.4H93.0391L101.583 39.8V29.4H105.263V46H102.207L93.6631 35.6V46H89.9831ZM116.936 46.24C115.123 46.24 113.523 45.8933 112.136 45.2C110.763 44.4933 109.696 43.5267 108.936 42.3C108.176 41.0733 107.796 39.6933 107.796 38.16C107.796 36.6267 108.176 35.2467 108.936 34.02C109.696 32.7933 110.763 31.8333 112.136 31.14C113.523 30.4333 115.13 30.08 116.956 30.08C118.49 30.08 119.876 30.34 121.116 30.86C122.37 31.38 123.416 32.1333 124.256 33.12L121.876 35.32C120.836 34.2267 119.556 33.68 118.036 33.68C116.876 33.68 115.843 33.9333 114.936 34.44C114.03 34.9467 113.323 35.6533 112.816 36.56C112.31 37.4533 112.056 38.4533 112.056 39.56C112.056 40.6667 112.31 41.6733 112.816 42.58C113.323 43.4733 114.03 44.1733 114.936 44.68C115.843 45.1867 116.876 45.44 118.036 45.44C119.556 45.44 120.836 44.8867 121.876 43.78L124.256 45.98C123.416 46.98 122.37 47.74 121.116 48.26C119.863 48.78 118.47 49.04 116.936 49.04V46.24ZM126.667 46V29.4H130.387V46H126.667ZM133.924 46V29.4H136.98L145.524 39.8V29.4H149.204V46H146.148L137.604 35.6V46H133.924ZM152.742 46V29.4H156.462V46H152.742Z" fill="#7A3F17"/>
</svg>
